<svg xmlns="http://www.w3.org/2000/svg" viewBox="0 0 24 24" width="24" height="24"><g stroke-linecap="round" stroke-linejoin="round"><polygon points="1.5,14.35 12.5,19.85 12.5,17.65 1.5,12.15" fill="#4D8EDC" stroke="#7FB0EA" stroke-width="0.8"/><polygon points="20.5,15.85 12.5,19.85 12.5,17.65 20.5,13.65" fill="#3A6FB8" stroke="#7FB0EA" stroke-width="0.8"/><polygon points="9.5,8.15 20.5,13.65 12.5,17.65 1.5,12.15" fill="#A9CDF5" stroke="#7FB0EA" stroke-width="0.8"/><polygon points="1.5,8.35 12.5,13.85 12.5,11.65 1.5,6.15" fill="#4D8EDC" stroke="#7FB0EA" stroke-width="0.8"/><polygon points="20.5,9.85 12.5,13.85 12.5,11.65 20.5,7.65" fill="#3A6FB8" stroke="#7FB0EA" stroke-width="0.8"/><polygon points="9.5,2.15 20.5,7.65 12.5,11.65 1.5,6.15" fill="#A9CDF5" stroke="#7FB0EA" stroke-width="0.8"/><circle cx="18.5" cy="18.5" r="3.6" fill="#FF8E7B"/><line x1="16.8" y1="18.5" x2="20.2" y2="18.5" fill="none" stroke="#FFFFFF" stroke-width="1.2"/><line x1="18.5" y1="16.8" x2="18.5" y2="20.2" fill="none" stroke="#FFFFFF" stroke-width="1.2"/></g></svg>
